/vscmnt/brussel_pixiu_data/_data_brussel/112/vsc11236/PredSimResults/SUBJ11mtu3D/weighted-LRposFixed/expIG/worker_02.mot
version=1
nRows=8
nColumns=50
inDegrees=yes
endheader
                time	         pelvis_tilt	         pelvis_list	     pelvis_rotation	           pelvis_tx	           pelvis_ty	           pelvis_tz	       hip_flexion_r	     hip_adduction_r	      hip_rotation_r	        knee_angle_r	       ankle_angle_r	         mtp_angle_r	       hip_flexion_l	     hip_adduction_l	      hip_rotation_l	        knee_angle_l	       ankle_angle_l	         mtp_angle_l	    lumbar_extension	      lumbar_bending	     lumbar_rotation	 ercspn_r/activation	 intobl_r/activation	 extobl_r/activation	    abd_r/activation	    add_r/activation	hamstrings_r/activation	bifemsh_r/activation	glut_max_r/activation	iliopsoas_r/activation	rect_fem_r/activation	  vasti_r/activation	gastroc_r/activation	 soleus_r/activation	tib_ant_r/activation	 ercspn_l/activation	 intobl_l/activation	 extobl_l/activation	    abd_l/activation	    add_l/activation	hamstrings_l/activation	bifemsh_l/activation	glut_max_l/activation	iliopsoas_l/activation	rect_fem_l/activation	  vasti_l/activation	gastroc_l/activation	 soleus_l/activation	tib_ant_l/activation	
          2.12297670	         -6.09042294	          4.86104904	         -8.37382393	          2.20789577	          0.93919276	          0.01738747	        -12.32595483	         -5.44860192	          3.99776486	         -8.24152314	         12.13557373	         28.19799803	         31.31523476	          1.26279317	         -4.57017677	         -4.84406476	          5.15689746	          0.23266325	         -3.94677152	         -3.26335036	          2.15508457	          0.05492691	          0.01000004	          0.01000013	          0.04404068	          0.02532903	          0.02224005	          0.11384942	          0.04404086	          0.42687147	          0.01000063	          0.01000016	          0.32219919	          0.25053714	          0.01000001	          0.07959697	          0.11524176	          0.02333021	          0.01060579	          0.12441324	          0.04008200	          0.18667437	          0.04818472	          0.08313605	          0.01000049	          0.01000011	          0.01489086	          0.01000004	          0.28328762	
          2.13712988	         -6.20905510	          4.70815801	         -8.39015127	          2.22617576	          0.93719557	          0.01658926	        -12.47253251	         -5.37206147	          3.61279290	         -9.78017799	         11.51695415	         30.25877707	         31.22624656	          1.29049701	         -4.62886939	         -6.33788055	          4.74786082	          0.18870481	         -3.62787707	         -3.54072062	          2.34800059	          0.06948155	          0.01000003	          0.01000019	          0.03563490	          0.03421339	          0.02258800	          0.09211969	          0.03563505	          0.41470609	          0.01000035	          0.02332961	          0.29110123	          0.23287678	          0.01000000	          0.06440488	          0.11710030	          0.01887732	          0.02400126	          0.10305634	          0.05121302	          0.15104511	          0.07617659	          0.06726837	          0.01000016	          0.01000005	          0.01528950	          0.01235897	          0.31362406	
          2.15128306	         -6.30496147	          4.54982312	         -8.35243562	          2.24467884	          0.93567709	          0.01569063	        -12.42414000	         -5.27969419	          3.19829387	        -11.70277099	         10.71360973	         32.39963907	         30.96478205	          1.31141100	         -4.71017375	         -7.58553098	          4.16680141	          0.17890493	         -3.31556153	         -3.82494171	          2.51582671	          0.09900171	          0.01000003	          0.01000011	          0.02883348	          0.03374248	          0.02187589	          0.07453739	          0.02883360	          0.39966690	          0.01233702	          0.01887708	          0.23554062	          0.19395565	          0.01000000	          0.07737364	          0.09475009	          0.01527432	          0.09629534	          0.13067369	          0.05161652	          0.12221615	          0.08970261	          0.05442926	          0.01000010	          0.01000002	          0.01237130	          0.01000010	          0.35453437	
          2.16543624	         -6.37715790	          4.38538421	         -8.26440446	          2.26311653	          0.93485354	          0.01469828	        -12.08083478	         -5.16818430	          2.76284807	        -14.14776692	          9.71959426	         34.52958592	         30.62495096	          1.33909167	         -4.81018049	         -8.71965344	          3.54918902	          0.13729383	         -3.03535698	         -4.11559908	          2.65487821	          0.13016664	          0.01000003	          0.01000012	          0.02333021	          0.05401157	          0.01878038	          0.06031094	          0.02333031	          0.37384691	          0.01000087	          0.01527414	          0.19058438	          0.15693649	          0.01000000	          0.08169723	          0.07666572	          0.01235901	          0.13416881	          0.15850100	          0.04659696	          0.09888954	          0.11282027	          0.04404067	          0.01000018	          0.02354412	          0.01001061	          0.01000282	          0.38327184	
          2.17958941	         -6.42352975	          4.21623024	         -8.12962639	          2.28132177	          0.93479185	          0.01363708	        -11.38343965	         -5.03946570	          2.30045761	        -17.19078668	          8.52333841	         36.51544830	         30.24178318	          1.37328975	         -4.92170221	         -9.84504687	          3.14217494	          0.10568858	         -2.79648881	         -4.41390163	          2.76061411	          0.14230774	          0.01000004	          0.01000012	          0.01887731	          0.07171821	          0.02607956	          0.04879988	          0.01887739	          0.33121427	          0.01000015	          0.01235887	          0.15420867	          0.12698295	          0.01000001	          0.08002107	          0.06203300	          0.01000015	          0.14549116	          0.15055604	          0.04745639	          0.08001515	          0.11074618	          0.03563490	          0.01000013	          0.06790320	          0.01000016	          0.01000012	          0.40163769	
          2.19374259	         -6.44464128	          4.03408809	         -7.95150090	          2.29920111	          0.93547183	          0.01253871	        -10.32794461	         -4.89212521	          1.80401610	        -20.80845026	          7.13729178	         38.08979406	         29.77501758	          1.40749049	         -5.02146825	        -10.86295399	          2.87253501	          0.07929448	         -2.60316677	         -4.71066171	          2.83092910	          0.14737957	          0.01000005	          0.01000015	          0.01527431	          0.08740446	          0.02174385	          0.04169814	          0.01527438	          0.27820549	          0.01000006	          0.01000002	          0.12477578	          0.10274647	          0.01000007	          0.07064837	          0.05019314	          0.01000005	          0.14482446	          0.12182034	          0.04871524	          0.06474320	          0.10805120	          0.02883348	          0.01000011	          0.12344199	          0.01000032	          0.01000023	          0.40361820	
          2.20789577	         -6.44332257	          3.82898390	         -7.73372642	          2.31667465	          0.93690107	          0.01143624	         -8.93778364	         -4.72822658	          1.26567988	        -24.92811260	          5.64676625	         38.79963626	         29.17704260	          1.43847036	         -5.06751023	        -11.68051229	          2.75376546	          0.05732148	         -2.46059394	         -4.99502668	          2.86568095	          0.15674357	          0.01000005	          0.01000032	          0.01235900	          0.09589806	          0.01759379	          0.05688352	          0.01235905	          0.22510625	          0.01000005	          0.01000000	          0.10096056	          0.08313586	          0.01000002	          0.05725139	          0.04061309	          0.01000005	          0.13545720	          0.09856923	          0.04487451	          0.05238611	          0.10500118	          0.02333021	          0.01000011	          0.16417474	          0.01000121	          0.01000087	          0.39610080	
          2.22204895	         -6.42224810	          3.58906307	         -7.47600629	          2.33373108	          0.93906696	          0.01034993	         -7.26216444	         -4.54886912	          0.69871091	        -29.42271471	          4.00986202	         38.49815338	         28.40616425	          1.45884132	         -5.03900059	        -12.21711657	          2.75368616	          0.04413381	         -2.36760621	         -5.25150627	          2.86408409	          0.15894241	          0.01000004	          0.02005769	          0.01000011	          0.10609231	          0.01423581	          0.07230795	          0.01000016	          0.18214159	          0.01000004	          0.01000000	          0.08169082	          0.06726822	          0.01756399	          0.04910506	          0.03286153	          0.01000004	          0.12033278	          0.07975591	          0.04351137	          0.04238753	          0.09780864	          0.01887732	          0.01000011	          0.18724269	          0.01000039	          0.01000033	          0.38242074	
